<?xml version="1.0" encoding="utf-8"?>
<!-- Generator: Adobe Illustrator 22.0.1, SVG Export Plug-In . SVG Version: 6.00 Build 0)  -->
<svg version="1.1" id="logotype" xmlns="http://www.w3.org/2000/svg" xmlns:xlink="http://www.w3.org/1999/xlink" x="0px" y="0px"
	 viewBox="0 0 160 67" style="enable-background:new 0 0 160 67;" xml:space="preserve">
<g>
	<path class="logotype_fore" d="M53.5,63.5c-1.5-1.7-2.2-3.7-2.2-6.2c0-1.1,0.1-2.3,0.4-3.6c0.3-1.4,0.5-2.7,0.8-3.9c0.3-1.3,0.5-2.1,0.6-2.5
		c0.4-1.8,0.8-3.6,1.1-5.3c0.4-1.7,0.5-3.1,0.5-4.2c0-2.6-0.9-3.9-2.8-3.9c-1.3,0-2.5,0.7-3.5,2c-1,1.3-1.8,3-2.5,5.1l-5.2,24.6h-11
		l5.6-26.4c0.2-0.6,0.2-1.3,0.2-1.9c0-2.2-0.8-3.4-2.3-3.4c-1.4,0-2.7,0.7-3.7,2c-1,1.3-1.9,3-2.5,5.2l-5.2,24.6h-11L19,27.2h11
		l-0.8,4c2.6-2.9,5.7-4.4,9.4-4.4c4.5,0,7.1,2.2,7.9,6.6c2.8-4.3,6.4-6.5,10.7-6.5c2.6,0,4.7,0.7,6.2,2.1c1.5,1.4,2.3,3.6,2.3,6.5
		c0,1.5-0.2,3.1-0.5,4.9c-0.4,1.8-0.9,4-1.5,6.6c-0.4,1.6-0.8,3.1-1.1,4.6c-0.3,1.5-0.5,2.7-0.5,3.6c0,1,0.2,1.8,0.7,2.4
		c0.5,0.6,1.3,0.8,2.4,0.8c1.5,0,2.8-0.5,3.7-1.6c0.9-1.1,1.8-2.8,2.8-5.1h3.2c-1.9,5.6-4.1,9.4-6.6,11.3c-2.5,1.9-5,2.9-7.7,2.9
		C57.3,66,55,65.2,53.5,63.5z"/>
	<path class="logotype_fore" d="M73.1,63.7c-1.5-1.5-2.3-3.8-2.3-6.9c0-1.3,0.2-2.9,0.6-5l5.2-24.6h11l-5.5,26.1c-0.2,0.8-0.3,1.6-0.3,2.5
		c0,1,0.2,1.8,0.7,2.2c0.5,0.4,1.3,0.7,2.4,0.7c1.5,0,2.9-0.6,4.1-1.9c1.3-1.3,2.2-2.9,2.8-4.9h3.2c-1.9,5.5-4.3,9.3-7.3,11.2
		c-3,2-5.9,3-8.8,3C76.6,66,74.6,65.2,73.1,63.7z M80,21.3c-1.2-1.2-1.8-2.6-1.8-4.3c0-1.7,0.6-3.1,1.8-4.3c1.2-1.2,2.6-1.8,4.3-1.8
		s3.1,0.6,4.3,1.8c1.2,1.2,1.8,2.6,1.8,4.3c0,1.7-0.6,3.1-1.8,4.3c-1.2,1.2-2.6,1.8-4.3,1.8S81.1,22.5,80,21.3z"/>
	<path class="logotype_fore" d="M113.5,63.7c-1.6-1.5-2.5-3.7-2.5-6.5c0-1.2,0.2-2.6,0.5-4l0.6-3c0.2-0.9,0.3-1.8,0.3-2.8
		c0-2.5-0.9-3.7-2.8-3.7c-0.8,0-1.7,0.2-2.6,0.7c-0.9,0.5-1.9,1.2-3.1,2.1l-4,18.9H89l11.1-52.1l11.3-1.5l-5.7,27l14.8-11.7h7.6
		l-15.3,10.7c0.8-0.2,1.6-0.3,2.5-0.3c2.8,0,4.9,0.8,6.3,2.5c1.4,1.7,2.1,3.8,2.1,6.4c0,1.1-0.1,2-0.3,2.9l-0.8,3.8
		c-0.3,0.9-0.4,1.7-0.4,2.5c0,1.9,1,2.8,3,2.8c1.5,0,2.8-0.5,3.7-1.6c0.9-1.1,1.8-2.8,2.8-5.1h3.2C131.7,61.3,127,66,120.7,66
		C117.6,66,115.2,65.2,113.5,63.7z"/>
	<path class="logotype_fore" d="M133.7,63c-2.1-2-3.1-5-3.1-9.2c0-3.5,0.7-7.4,2.1-11.7c1.4-4.2,3.6-7.9,6.7-11c3.1-3.1,7.1-4.6,11.9-4.6
		c5.6,0,8.4,2.5,8.4,7.4c0,2.9-0.8,5.5-2.5,7.9c-1.6,2.4-3.8,4.3-6.5,5.8c-2.7,1.5-5.6,2.3-8.7,2.5c-0.1,1.1-0.2,1.9-0.2,2.3
		c0,4.2,1.6,6.4,4.8,6.4c1.4,0,3-0.4,4.6-1.1c1.6-0.8,3.1-1.7,4.4-2.9c-1.4,7.6-5.8,11.3-13.3,11.3C138.7,66,135.8,65,133.7,63z
		 M148.1,44.5c1.7-1.2,3.1-2.8,4.1-4.7c1-1.9,1.6-3.9,1.6-6c0-2.1-0.6-3.1-1.9-3.1c-1.8,0-3.6,1.6-5.3,4.9
		c-1.8,3.2-3.1,6.9-3.9,10.9C144.5,46.3,146.4,45.7,148.1,44.5z"/>
</g>
<g>
	<path class="logotype_back" d="M43.5,53.5c-1.5-1.7-2.2-3.7-2.2-6.2c0-1.1,0.1-2.3,0.4-3.6c0.3-1.4,0.5-2.7,0.8-3.9c0.3-1.3,0.5-2.1,0.6-2.5
		c0.4-1.8,0.8-3.6,1.1-5.3c0.4-1.7,0.5-3.1,0.5-4.2c0-2.6-0.9-3.9-2.8-3.9c-1.3,0-2.5,0.7-3.5,2c-1,1.3-1.8,3-2.5,5.1l-5.2,24.6h-11
		l5.6-26.4c0.2-0.6,0.2-1.3,0.2-1.9c0-2.2-0.8-3.4-2.3-3.4c-1.4,0-2.7,0.7-3.7,2c-1,1.3-1.9,3-2.5,5.2l-5.2,24.6h-11L9,17.2h11
		l-0.8,4c2.6-2.9,5.7-4.4,9.4-4.4c4.5,0,7.1,2.2,7.9,6.6c2.8-4.3,6.4-6.5,10.7-6.5c2.6,0,4.7,0.7,6.2,2.1c1.5,1.4,2.3,3.6,2.3,6.5
		c0,1.5-0.2,3.1-0.5,4.9c-0.4,1.8-0.9,4-1.5,6.6c-0.4,1.6-0.8,3.1-1.1,4.6c-0.3,1.5-0.5,2.7-0.5,3.6c0,1,0.2,1.8,0.7,2.4
		c0.5,0.6,1.3,0.8,2.4,0.8c1.5,0,2.8-0.5,3.7-1.6c0.9-1.1,1.8-2.8,2.8-5.1h3.2c-1.9,5.6-4.1,9.4-6.6,11.3c-2.5,1.9-5,2.9-7.7,2.9
		C47.3,56,45,55.2,43.5,53.5z"/>
	<path class="logotype_back" d="M63.1,53.7c-1.5-1.5-2.3-3.8-2.3-6.9c0-1.3,0.2-2.9,0.6-5l5.2-24.6h11l-5.5,26.1c-0.2,0.8-0.3,1.6-0.3,2.5
		c0,1,0.2,1.8,0.7,2.2c0.5,0.4,1.3,0.7,2.4,0.7c1.5,0,2.9-0.6,4.1-1.9c1.3-1.3,2.2-2.9,2.8-4.9h3.2c-1.9,5.5-4.3,9.3-7.3,11.2
		c-3,2-5.9,3-8.8,3C66.6,56,64.6,55.2,63.1,53.7z M70,11.3c-1.2-1.2-1.8-2.6-1.8-4.3c0-1.7,0.6-3.1,1.8-4.3c1.2-1.2,2.6-1.8,4.3-1.8
		s3.1,0.6,4.3,1.8c1.2,1.2,1.8,2.6,1.8,4.3c0,1.7-0.6,3.1-1.8,4.3c-1.2,1.2-2.6,1.8-4.3,1.8S71.1,12.5,70,11.3z"/>
	<path class="logotype_back" d="M103.5,53.7c-1.6-1.5-2.5-3.7-2.5-6.5c0-1.2,0.2-2.6,0.5-4l0.6-3c0.2-0.9,0.3-1.8,0.3-2.8
		c0-2.5-0.9-3.7-2.8-3.7c-0.8,0-1.7,0.2-2.6,0.7c-0.9,0.5-1.9,1.2-3.1,2.1l-4,18.9H79L90.1,3.4l11.3-1.5l-5.7,27l14.8-11.7h7.6
		l-15.3,10.7c0.8-0.2,1.6-0.3,2.5-0.3c2.8,0,4.9,0.8,6.3,2.5c1.4,1.7,2.1,3.8,2.1,6.4c0,1.1-0.1,2-0.3,2.9l-0.8,3.8
		c-0.3,0.9-0.4,1.7-0.4,2.5c0,1.9,1,2.8,3,2.8c1.5,0,2.8-0.5,3.7-1.6c0.9-1.1,1.8-2.8,2.8-5.1h3.2C121.7,51.3,117,56,110.7,56
		C107.6,56,105.2,55.2,103.5,53.7z"/>
	<path class="logotype_back" d="M123.7,53c-2.1-2-3.1-5-3.1-9.2c0-3.5,0.7-7.4,2.1-11.7c1.4-4.2,3.6-7.9,6.7-11c3.1-3.1,7.1-4.6,11.9-4.6
		c5.6,0,8.4,2.5,8.4,7.4c0,2.9-0.8,5.5-2.5,7.9c-1.6,2.4-3.8,4.3-6.5,5.8c-2.7,1.5-5.6,2.3-8.7,2.5c-0.1,1.1-0.2,1.9-0.2,2.3
		c0,4.2,1.6,6.4,4.8,6.4c1.4,0,3-0.4,4.6-1.1c1.6-0.8,3.1-1.7,4.4-2.9c-1.4,7.6-5.8,11.3-13.3,11.3C128.7,56,125.8,55,123.7,53z
		 M138.1,34.5c1.7-1.2,3.1-2.8,4.1-4.7c1-1.9,1.6-3.9,1.6-6c0-2.1-0.6-3.1-1.9-3.1c-1.8,0-3.6,1.6-5.3,4.9
		c-1.8,3.2-3.1,6.9-3.9,10.9C134.5,36.3,136.4,35.7,138.1,34.5z"/>
</g>
</svg>
